<?xml version="1.0" standalone="no"?>
<!DOCTYPE svg PUBLIC "-//W3C//DTD SVG 20010904//EN"
 "http://www.w3.org/TR/2001/REC-SVG-20010904/DTD/svg10.dtd">
<svg version="1.0" xmlns="http://www.w3.org/2000/svg"
 width="500.000000pt" height="500.000000pt" viewBox="0 0 500.000000 500.000000"
 preserveAspectRatio="xMidYMid meet">

<g transform="translate(0.000000,500.000000) scale(0.100000,-0.100000)"
fill="#000000" stroke="none">
<path d="M3150 3129 c0 -25 81 -109 105 -109 8 0 15 -4 15 -9 0 -10 -75 -41
-315 -130 -244 -90 -235 -82 -121 -102 208 -37 328 -92 438 -200 115 -112 165
-234 171 -411 1 -47 6 -84 11 -81 23 15 81 170 121 325 74 282 134 376 249
386 44 4 60 0 85 -17 36 -26 44 -17 44 46 0 98 -126 153 -252 108 -39 -13 -44
-13 -88 9 l-46 24 57 12 c31 6 90 10 131 8 41 -2 75 0 75 3 0 18 -66 92 -101
115 -62 39 -123 41 -282 9 -150 -30 -209 -26 -268 16 l-29 20 0 -22z"/>
<path d="M1066 2691 c35 -60 157 -167 235 -205 145 -71 202 -80 479 -80 200 1
286 5 471 27 503 60 812 15 991 -142 25 -23 49 -41 53 -41 14 0 -5 94 -31 149
-14 31 -37 69 -52 85 -69 74 -213 141 -357 165 -175 31 -505 31 -890 2 -271
-21 -530 -7 -755 40 -52 11 -110 23 -129 26 l-34 6 19 -32z"/>
<path d="M2355 2314 c-338 -39 -625 -45 -866 -18 -78 8 -146 13 -151 12 -17
-6 72 -108 125 -144 110 -76 245 -107 462 -107 176 0 260 11 580 75 309 62
486 56 683 -21 l53 -21 -18 32 c-46 82 -133 140 -265 179 -63 19 -102 22 -278
25 -130 1 -249 -3 -325 -12z"/>
<path d="M2760 2039 c-36 -5 -153 -27 -260 -50 -248 -52 -435 -62 -593 -31
l-98 19 33 -28 c95 -81 214 -113 388 -107 106 4 158 13 335 56 258 62 353 77
463 69 82 -6 84 -6 67 12 -46 51 -198 79 -335 60z"/>
</g>
</svg>
